# xmcd
#
# Track frame offsets: 
#        150
#        946
#        18386
#        34567
#        56040
#        73732
#        94535
#
# Disc length: 1578 seconds
#
# Revision: 0
# Processed by: cddbd v1.5.2PL0 Copyright (c) Steve Scherf et al.
# Submitted via: ExactAudioCopy v1.0b3
#
DISCID=49062807
DTITLE=MC Nakka - Before the Judgement
DYEAR=2014
DGENRE=Hip-Hop
TTITLE0=INTRO
TTITLE1=HOPE!!
TTITLE2=Rhymaddict
TTITLE3=ハグレモノ
TTITLE4=オサラバ
TTITLE5=I'll be back
TTITLE6=After the Judgement
EXTD=
EXTT0=
EXTT1=
EXTT2=
EXTT3=
EXTT4=
EXTT5=
EXTT6=
PLAYORDER=
